<svg fill="#000000" xmlns="http://www.w3.org/2000/svg"  viewBox="0 0 24 24" width="30px" height="30px"><path d="M8.994 12.242H4.863v1.502h2.002c-.165.345-.402.646-.691.89l.001.001-.002 0c-.457.382-1.044.611-1.686.611-1.114 0-2.065-.692-2.448-1.67-.117-.298-.181-.621-.181-.959 0-.545.166-1.05.449-1.47l.049-.065c.476-.664 1.251-1.094 2.13-1.094.702 0 1.341.274 1.81.725l1.254-1.401C6.748 8.569 5.67 8.111 4.487 8.111c-1.555 0-2.926.789-3.737 1.987-.486.72-.77 1.587-.77 2.52 0 .74.178 1.438.494 2.054.747 1.456 2.263 2.453 4.012 2.453 1.201 0 2.292-.469 3.1-1.235l-.001-.001c.867-.818 1.408-1.983 1.408-3.27V12.242zM21.045 15.353l-1.773-4.658h1.077l1.211 3.545 1.485-3.545h.935c0 0-2.9 6.842-2.924 6.899l-.935.024C20.138 17.579 21.045 15.353 21.045 15.353zM18.012 13.552c0 .577-.508.988-1.18.988-.528 0-.865-.245-.865-.62 0-.387.324-.612.943-.648l1.105-.081L18.012 13.552zM17.095 10.695c-1.053 0-1.832.581-1.861 1.379h.894c.074-.38.438-.628.938-.628.606 0 .949.272.949.775l0 .347-1.24.064c-1.151.067-1.775.522-1.775 1.312 0 .798.643 1.328 1.565 1.328.623 0 1.201-.304 1.463-.786h.02l.003.786h.915v-3.114C18.967 11.268 18.229 10.695 17.095 10.695zM12.56 12.22h-1.221V9.78h1.221c.871 0 1.43.411 1.43 1.221S13.435 12.22 12.56 12.22zM12.852 8.865h-2.428v6.407h.915v-2.136h1.479C14.088 13.136 15 12.25 15 11S14.105 8.865 12.852 8.865z"/></svg>