<svg fill="#000000" xmlns="http://www.w3.org/2000/svg"  viewBox="0 0 50 50" width="30px" height="30px"><path d="M 15 10 C 6.726563 10 0 16.726563 0 25 C 0 33.273438 6.726563 40 15 40 C 18.832031 40 22.3125 38.53125 24.96875 36.15625 C 27.609375 38.558594 31.167969 40 35 40 C 43.246094 40 50 33.246094 50 25 C 50 16.753906 43.246094 10 35 10 C 31.167969 10 27.609375 11.441406 24.96875 13.84375 C 22.3125 11.46875 18.832031 10 15 10 Z M 15 12 C 18.660156 12 21.953125 13.511719 24.3125 15.9375 C 24.050781 16.289063 23.792969 16.648438 23.5 17 L 25.25 17 C 25.496094 17.316406 25.71875 17.660156 25.9375 18 L 22.90625 18 C 22.507813 18.601563 22.207031 19.300781 21.90625 20 L 27 20 C 27.136719 20.328125 27.265625 20.65625 27.375 21 L 21.59375 21 C 21.394531 21.601563 21.289063 22.300781 21.1875 23 L 27.84375 23 C 27.894531 23.332031 27.941406 23.660156 27.96875 24 L 21 24 L 21 26 L 27.96875 26 C 27.941406 26.339844 27.894531 26.667969 27.84375 27 L 21.09375 27 C 21.195313 27.699219 21.300781 28.398438 21.5 29 L 27.375 29 C 27.265625 29.34375 27.136719 29.671875 27 30 L 21.90625 30 C 22.207031 30.699219 22.507813 31.398438 22.90625 32 L 25.9375 32 C 25.71875 32.339844 25.496094 32.683594 25.25 33 L 23.59375 33 C 23.816406 33.332031 24.089844 33.667969 24.375 34 C 22.011719 36.464844 18.691406 38 15 38 C 7.808594 38 2 32.191406 2 25 C 2 17.808594 7.808594 12 15 12 Z M 35 12 C 42.15625 12 48 17.84375 48 25 C 48 32.15625 42.15625 38 35 38 C 31.714844 38 28.667969 36.738281 26.40625 34.71875 C 28.640625 32.097656 30 28.707031 30 25 C 30 21.292969 28.640625 17.902344 26.40625 15.28125 C 28.667969 13.261719 31.714844 12 35 12 Z"/></svg>