<?xml version="1.0"?><svg fill="#000000" xmlns="http://www.w3.org/2000/svg"  viewBox="0 0 30 30" width="30px" height="30px">    <path d="M 9.5 5.5 C 4.2654518 5.5 0 9.7654518 0 15 C 0 20.234548 4.2654518 24.5 9.5 24.5 C 11.844139 24.5 13.989028 23.639388 15.648438 22.224609 C 17.145353 23.335438 18.992523 24 21 24 C 25.971 24 30 19.971 30 15 C 30 10.029 25.971 6 21 6 C 18.992523 6 17.145353 6.6645625 15.648438 7.7753906 C 13.989028 6.3606119 11.844139 5.5 9.5 5.5 z M 9.5 7.5 C 11.273894 7.5 12.898007 8.1137108 14.179688 9.1367188 C 12.823846 10.712255 12 12.758062 12 15 C 12 17.241938 12.823846 19.287745 14.179688 20.863281 C 12.898007 21.886289 11.273894 22.5 9.5 22.5 C 5.3465482 22.5 2 19.153452 2 15 C 2 10.846548 5.3465482 7.5 9.5 7.5 z"/></svg>