<?xml version="1.0" encoding="UTF-8"?>
<svg xmlns="http://www.w3.org/2000/svg" xmlns:xlink="http://www.w3.org/1999/xlink" viewBox="0 0 30 30" width="30px" height="30px">
<g id="surface48453396">
<path style=" stroke:none;fill-rule:nonzero;fill:rgb(0%,0%,0%);fill-opacity:1;" d="M 4 5 C 2.894531 5 2 5.894531 2 7 L 2 11.050781 L 5.019531 11.050781 C 5.847656 11.050781 6.160156 11.824219 6.160156 11.824219 L 6.863281 15.386719 C 6.035156 12.710938 2.835938 11.414062 2 11.117188 L 2 23 C 2 24.105469 2.894531 25 4 25 L 26 25 C 27.105469 25 28 24.105469 28 23 L 28 7 C 28 5.894531 27.105469 5 26 5 Z M 18.371094 10.871094 C 19.335938 10.871094 20.324219 11.257812 20.324219 11.257812 L 19.984375 12.992188 C 19.984375 12.992188 19.214844 12.488281 18.539062 12.488281 C 17.503906 12.488281 17.140625 12.824219 17.140625 13.28125 C 17.140625 14.171875 20.03125 14.316406 20.03125 16.3125 C 20.03125 17.972656 17.957031 19.128906 16.46875 19.128906 C 14.972656 19.128906 14.203125 18.675781 14.203125 18.675781 L 14.5625 17.011719 C 14.5625 17.011719 15.359375 17.46875 16.5625 17.46875 C 17.769531 17.46875 17.9375 16.960938 17.9375 16.746094 C 17.9375 15.46875 15.046875 15.808594 15.046875 13.328125 C 15.046875 11.957031 16.179688 10.871094 18.371094 10.871094 Z M 9.023438 11.03125 L 11.253906 11.03125 L 8.078125 18.882812 L 5.78125 18.882812 L 4.109375 12.523438 C 4.109375 12.523438 5.871094 13.414062 6.957031 15.851562 C 7.007812 16.144531 7.113281 16.621094 7.113281 16.621094 Z M 12.074219 11.03125 L 14.183594 11.03125 L 12.921875 18.882812 L 10.839844 18.882812 Z M 23.398438 11.03125 L 25.589844 11.03125 L 27.203125 18.882812 L 25.308594 18.882812 L 25.082031 17.765625 L 22.476562 17.765625 L 22.046875 18.882812 L 19.976562 18.882812 Z M 24.183594 13.296875 L 23.050781 16.261719 L 24.78125 16.261719 Z M 24.183594 13.296875 "/>
</g>
</svg>
